<?xml version="1.0" standalone="no"?>
<!DOCTYPE svg PUBLIC "-//W3C//DTD SVG 20010904//EN"
 "http://www.w3.org/TR/2001/REC-SVG-20010904/DTD/svg10.dtd">
<svg version="1.0" xmlns="http://www.w3.org/2000/svg"
 width="221.000000pt" height="250.000000pt" viewBox="0 0 221.000000 250.000000"
 preserveAspectRatio="xMidYMid meet">
<metadata>
Created by potrace 1.16, written by Peter Selinger 2001-2019
</metadata>
<g transform="translate(0.000000,250.000000) scale(0.100000,-0.100000)"
fill="#000000" stroke="none">
<path d="M557 2491 c-10 -4 -19 -11 -19 -16 -3 -28 -12 -45 -24 -45 -8 0 -14
-5 -14 -11 0 -5 5 -7 10 -4 6 3 10 2 10 -4 0 -5 -6 -12 -12 -14 -10 -4 -10 -6
0 -6 6 -1 12 -6 12 -12 0 -5 -4 -7 -10 -4 -5 3 -10 -1 -10 -10 0 -9 5 -13 10
-10 6 3 10 2 10 -4 0 -5 -10 -12 -22 -14 l-23 -4 23 -2 c21 -1 33 -21 12 -21
-5 0 -10 -4 -10 -10 0 -5 6 -7 13 -4 13 5 35 -60 39 -118 1 -16 5 -28 9 -28 4
0 9 -11 11 -25 4 -17 1 -25 -9 -25 -12 0 -12 -3 1 -16 21 -20 20 -25 -1 -18
-10 3 -7 -2 7 -10 l25 -15 -39 -1 c-46 0 -44 -8 2 -12 30 -2 46 -17 20 -19 -7
0 -4 -4 7 -9 15 -6 6 -8 -30 -8 -43 0 -46 1 -20 8 l30 8 -27 1 c-17 1 -28 7
-28 15 0 8 -4 16 -9 18 -4 2 -12 14 -16 27 -6 19 -4 23 7 18 8 -3 21 -1 29 4
10 6 7 9 -13 9 -29 0 -54 31 -42 53 4 6 4 9 -1 5 -4 -4 -21 4 -37 17 -16 14
-35 25 -41 25 -8 0 -7 3 2 9 8 5 -9 9 -48 9 -34 0 -64 -4 -67 -9 -3 -5 3 -6
12 -2 16 6 16 4 -2 -20 -22 -31 -41 -34 -47 -9 -3 9 -5 0 -6 -20 0 -21 4 -38
9 -38 20 0 10 -19 -12 -23 l-23 -4 23 -2 c19 -1 22 -7 22 -41 0 -22 -4 -40
-10 -40 -5 0 -10 -11 -10 -24 0 -19 4 -23 20 -19 15 4 20 0 20 -16 0 -12 -6
-21 -16 -21 -8 0 -12 5 -9 10 3 6 1 10 -4 10 -6 0 -11 -12 -11 -26 0 -23 2
-25 15 -14 22 18 34 3 36 -45 2 -22 8 -44 13 -48 7 -5 2 -7 -10 -4 -12 2 -21
-1 -21 -8 0 -7 10 -12 21 -11 12 1 21 -5 21 -14 0 -8 3 -17 7 -20 3 -3 8 -20
11 -37 5 -30 3 -33 -21 -33 -29 0 -25 -9 8 -15 30 -6 37 -14 21 -25 -11 -6
-10 -9 5 -13 10 -2 -4 -5 -32 -6 -39 -1 -53 3 -58 15 -8 20 2 36 16 28 7 -4 8
-2 4 4 -4 7 -14 12 -21 12 -9 0 -12 6 -8 17 4 11 3 14 -5 9 -8 -5 -12 0 -13
13 -2 33 -4 39 -11 47 -15 14 -8 26 12 21 11 -3 20 -1 20 4 0 9 -16 13 -35 9
-14 -2 -35 31 -36 59 0 14 -3 20 -6 14 -6 -16 -33 8 -33 29 0 10 3 9 10 -2 9
-13 10 -13 10 0 0 13 1 13 10 0 7 -12 10 -8 10 15 0 21 -3 26 -9 16 -7 -11 -9
-11 -14 0 -4 10 -6 10 -6 2 -1 -15 -61 -18 -61 -3 0 6 -8 10 -17 10 -12 0 -14
-3 -7 -8 9 -5 8 -11 -2 -20 -8 -7 -14 -8 -14 -2 0 5 -4 10 -8 10 -5 0 -8 -10
-8 -22 1 -14 -4 -22 -12 -20 -11 2 -13 -24 -11 -122 1 -69 6 -123 11 -120 4 3
8 -3 9 -13 0 -10 2 -28 5 -40 3 -16 -1 -23 -11 -23 -8 0 -15 -4 -15 -10 0 -5
7 -7 16 -3 16 6 34 -12 34 -34 0 -7 -9 -13 -19 -13 -11 0 -22 6 -24 13 -3 6
-6 -1 -6 -18 0 -17 3 -25 7 -18 11 17 47 9 46 -11 -1 -8 2 -13 7 -10 5 3 9 0
9 -5 0 -6 -16 -11 -35 -11 -27 0 -35 -4 -35 -17 0 -12 3 -14 8 -6 4 7 16 10
27 8 11 -2 26 -4 33 -4 19 -1 14 -21 -5 -22 -15 0 -15 -2 2 -9 17 -7 17 -9 3
-9 -10 -1 -18 -8 -18 -16 0 -8 -6 -15 -12 -15 -9 0 -8 -3 2 -9 8 -6 18 -7 22
-5 4 3 8 1 8 -5 0 -5 -6 -11 -12 -14 -7 -2 -10 -7 -7 -11 11 -11 38 5 32 20
-3 8 0 14 6 14 10 0 16 -30 12 -54 -1 -5 4 -13 11 -17 10 -7 10 -9 1 -9 -7 0
-13 -5 -13 -11 0 -5 4 -8 9 -5 5 3 11 -5 13 -19 4 -18 1 -25 -10 -25 -8 0 -12
-3 -8 -7 4 -5 13 -8 19 -8 15 0 26 -65 16 -91 -6 -16 -8 -16 -8 -2 -1 9 -7 19
-13 21 -10 4 -9 8 2 16 13 9 13 11 -2 11 -13 0 -18 -8 -18 -27 -1 -21 -3 -24
-9 -13 -5 8 -8 48 -7 88 1 78 -1 86 -24 71 -10 -6 -11 -9 -2 -9 6 0 12 -4 12
-10 0 -5 -9 -10 -20 -10 -11 0 -20 -4 -20 -9 0 -6 9 -8 20 -6 11 2 20 0 20 -6
0 -5 -12 -10 -27 -10 -17 -1 -21 -3 -11 -6 10 -2 18 -13 18 -23 0 -10 6 -21
13 -23 9 -4 9 -6 0 -6 -7 -1 -13 -6 -13 -12 0 -5 4 -7 10 -4 5 3 10 1 10 -4 0
-6 -4 -11 -10 -11 -5 0 -10 -11 -10 -24 0 -21 4 -24 27 -20 15 3 30 7 35 10 4
3 8 1 8 -5 0 -5 9 -8 20 -6 11 2 22 0 25 -6 4 -5 -1 -9 -9 -9 -10 0 -16 -9
-16 -24 0 -19 5 -24 19 -21 14 2 20 -4 24 -23 5 -25 4 -25 -9 -7 -10 13 -14
15 -14 4 0 -12 -2 -12 -10 1 -7 11 -10 -1 -10 -42 0 -55 1 -57 25 -52 14 2 25
0 25 -6 0 -5 -11 -10 -25 -10 -15 0 -25 -6 -25 -15 0 -9 -6 -12 -15 -9 -12 5
-13 10 -5 19 9 11 7 12 -8 8 -21 -5 -24 -37 -4 -39 7 -1 16 -2 20 -3 15 -2 57
-42 57 -54 1 -7 6 -11 13 -9 7 1 17 3 24 5 7 1 13 -8 14 -21 1 -17 -4 -22 -22
-22 -13 0 -24 -5 -24 -11 0 -6 9 -9 20 -6 10 3 27 -2 37 -10 17 -14 17 -14 1
-9 -10 3 -18 1 -18 -4 0 -5 8 -11 18 -13 16 -4 16 -5 0 -6 -10 0 -18 -5 -18
-11 0 -5 6 -7 14 -4 19 7 32 -16 15 -27 -11 -7 -11 -9 2 -9 19 0 30 -42 17
-62 -8 -10 -11 -10 -15 0 -7 18 -33 15 -34 -5 0 -15 -2 -15 -9 2 -6 13 -9 15
-9 5 -1 -13 -2 -13 -11 0 -8 12 -10 10 -10 -8 0 -13 4 -20 10 -17 5 3 10 1 10
-4 0 -13 22 -10 32 4 5 6 8 4 8 -5 0 -13 1 -13 10 0 8 13 11 13 19 1 7 -11 10
-10 14 5 2 10 5 -3 6 -29 1 -29 5 -46 11 -42 6 3 10 -3 10 -14 0 -13 -6 -18
-17 -16 -10 1 -23 -1 -28 -6 -6 -4 -17 -4 -25 1 -13 8 -13 10 -1 10 8 0 11 3
8 6 -4 4 -14 1 -23 -7 -20 -16 -24 -16 -35 3 -6 9 -9 3 -9 -17 0 -19 3 -25 8
-17 10 15 94 14 104 -2 5 -7 8 -6 8 3 0 11 3 11 15 1 8 -7 15 -20 15 -29 0
-14 -2 -14 -10 -1 -8 12 -10 11 -10 -6 0 -14 8 -24 21 -27 12 -3 18 -10 15
-15 -3 -6 0 -13 6 -15 7 -3 3 -6 -9 -6 -12 -1 -24 5 -26 12 -3 6 -6 2 -6 -10
-1 -18 3 -21 26 -17 23 4 42 -8 43 -27 0 -4 -22 -5 -49 -4 -27 1 -54 -1 -61
-5 -18 -11 -1 -33 21 -27 11 3 19 0 19 -6 0 -9 2 -9 8 -1 9 13 74 13 84 -1 10
-14 0 -24 -22 -20 -15 3 -20 -2 -20 -18 0 -18 2 -19 10 -7 6 9 10 10 10 3 0
-6 8 -10 18 -9 9 2 25 -5 35 -15 18 -17 18 -17 -7 -15 -19 2 -26 -1 -26 -13 0
-10 8 -17 20 -17 11 0 20 5 20 11 0 5 4 4 9 -3 4 -8 12 -13 17 -12 5 1 14 -12
20 -29 5 -17 13 -29 16 -25 9 8 58 -26 57 -40 0 -7 -3 -6 -6 2 -4 10 -8 10
-19 1 -11 -9 -18 -8 -31 2 -19 16 -23 16 -34 -3 -5 -7 -9 -8 -9 -3 0 6 -30 10
-70 9 -61 0 -70 2 -70 17 0 13 5 16 17 12 11 -4 14 -3 9 5 -5 8 0 12 13 12 10
0 22 -6 24 -12 3 -7 6 -4 6 7 1 17 -5 20 -39 20 -22 0 -40 -4 -40 -10 0 -5 -5
-3 -10 5 -8 12 -10 10 -10 -8 0 -13 4 -20 10 -17 6 4 10 -6 10 -22 0 -15 -4
-23 -8 -18 -8 12 -27 13 -38 2 -4 -4 -16 0 -26 10 -10 9 -18 12 -18 6 0 -5
-20 -9 -45 -8 -32 1 -46 -3 -50 -14 -6 -14 -8 -14 -18 -1 -11 13 -25 15 -78
11 -22 -1 -20 -27 2 -27 10 0 15 5 12 10 -4 5 -1 6 8 0 20 -12 139 -12 139 1
0 7 3 7 8 0 9 -13 75 -13 84 0 5 6 8 6 8 -2 0 -11 42 -9 62 3 4 3 8 -1 8 -8 0
-9 3 -9 10 2 9 13 10 13 10 0 0 -13 1 -13 10 0 5 8 10 11 10 5 0 -10 55 -11
113 -2 15 2 27 1 27 -2 0 -4 11 -7 25 -7 14 0 25 3 25 8 0 4 12 3 27 -3 29
-11 223 -9 223 3 0 3 9 4 21 1 12 -4 25 0 30 8 7 11 9 10 9 -4 0 -18 20 -19
32 -2 5 6 8 6 8 -2 0 -6 9 -9 21 -6 16 4 17 8 7 14 -10 7 -10 9 0 9 7 0 15 -6
18 -13 7 -19 34 -17 34 2 0 10 3 12 8 5 4 -6 17 -10 30 -9 12 1 22 -1 22 -5 0
-11 299 -11 305 0 4 6 11 8 16 5 5 -4 9 0 9 7 0 9 3 9 10 -2 9 -13 10 -13 11
0 0 10 3 8 9 -5 8 -19 9 -19 9 2 1 27 44 57 71 50 15 -4 20 0 20 14 0 31 65
58 82 34 4 -5 8 4 8 22 0 32 18 50 50 49 8 -1 17 10 20 24 3 14 15 29 27 35
12 5 24 21 27 36 4 19 12 28 26 28 11 1 29 1 40 2 11 0 20 5 20 11 0 6 -3 8
-7 5 -3 -4 -12 -2 -20 4 -10 9 -13 8 -13 0 0 -7 -4 -10 -10 -6 -5 3 -7 12 -4
20 4 8 10 12 15 9 5 -3 9 7 9 21 0 15 4 24 10 20 6 -3 7 1 4 9 -4 9 0 18 8 21
10 4 13 15 10 31 -3 20 0 26 17 31 11 3 21 13 20 22 0 10 -2 11 -6 4 -8 -21
-22 -15 -16 7 3 11 10 17 15 14 6 -4 9 6 8 22 -3 43 -1 56 8 50 4 -3 9 12 9
32 1 20 7 51 14 67 7 17 12 33 11 38 -1 4 10 8 25 8 24 2 25 2 6 6 -13 2 -23
9 -23 14 0 9 15 10 107 12 23 0 40 4 38 8 -3 4 -16 6 -30 4 -14 -1 -23 0 -20
4 13 12 65 7 65 -6 0 -9 16 -13 53 -13 46 0 53 3 54 20 1 14 -4 20 -20 20 -16
0 -18 -3 -9 -9 10 -6 8 -10 -8 -14 -16 -4 -20 -2 -16 9 4 11 -8 14 -64 14 -39
0 -70 -4 -70 -9 0 -5 -7 -12 -16 -15 -14 -5 -15 -4 -4 9 8 9 9 15 2 15 -6 0
-16 -8 -22 -17 -10 -16 -11 -16 -6 -1 3 9 0 19 -7 22 -9 3 -8 5 1 5 7 1 10 6
6 12 -5 8 -1 8 14 0 15 -8 23 -7 32 4 13 15 5 20 -27 16 -20 -3 -3 28 19 35
14 4 17 8 8 14 -8 5 -8 9 4 13 9 4 15 3 15 -1 -4 -22 3 -30 21 -25 11 3 20 9
20 14 0 5 -7 6 -15 3 -8 -4 -15 -2 -15 3 0 5 9 9 20 10 14 1 20 -4 20 -19 0
-15 4 -18 18 -13 9 4 27 7 40 6 12 0 22 3 22 8 0 4 -16 6 -36 4 -24 -2 -33 0
-29 7 4 7 17 9 29 6 11 -3 28 -1 36 5 11 7 -6 9 -55 9 -95 -2 -97 -2 -90 11 4
6 13 8 21 5 8 -3 25 -1 39 4 14 5 25 6 25 2 0 -12 93 -7 97 5 3 7 -17 11 -54
11 -90 0 -95 5 -13 12 l75 6 -87 2 c-72 2 -86 5 -82 17 4 10 15 12 35 8 24 -4
28 -3 23 10 -4 12 3 17 33 20 l38 4 -42 1 c-24 1 -43 -2 -43 -8 0 -5 -8 -10
-17 -9 -10 0 -13 3 -6 5 7 3 10 11 7 18 -3 8 2 16 11 20 9 3 13 2 10 -4 -3 -6
1 -7 10 -4 17 7 15 30 -3 27 -5 -1 -8 7 -5 17 3 11 9 20 14 20 5 0 9 7 9 16 0
8 4 12 10 9 5 -3 7 0 5 7 -3 8 2 23 12 33 10 11 24 32 32 48 8 15 17 27 20 27
3 0 7 16 8 35 2 25 -3 41 -18 56 -19 19 -30 21 -88 16 -62 -5 -123 -26 -136
-48 -4 -5 -15 -9 -26 -9 -11 0 -18 -4 -15 -8 3 -5 -4 -16 -15 -25 -13 -12 -19
-13 -20 -4 0 6 -6 -4 -12 -23 -8 -23 -18 -35 -30 -34 -9 1 -14 -2 -11 -7 8
-13 -35 -79 -52 -79 -8 0 -14 -5 -14 -11 0 -5 6 -7 13 -4 6 4 -1 -5 -18 -19
-27 -23 -31 -24 -37 -8 -5 13 -7 13 -7 2 -1 -13 -2 -13 -11 0 -6 10 -10 11
-10 3 0 -7 -5 -13 -11 -13 -5 0 -7 5 -4 11 4 6 -1 6 -12 -2 -23 -14 -26 -36
-6 -36 8 0 12 7 8 16 -5 15 -4 15 7 0 7 -9 19 -14 26 -11 9 3 13 -2 10 -14 -1
-9 -10 -19 -18 -21 -13 -4 -13 -3 0 6 13 9 13 11 -2 11 -10 0 -18 -4 -18 -10
0 -5 -8 -10 -17 -10 -15 0 -15 -1 1 -13 16 -12 16 -14 -3 -31 -12 -11 -21 -14
-21 -8 0 7 -4 12 -10 12 -5 0 -7 -6 -4 -13 3 -10 -5 -12 -31 -9 -34 4 -47 -9
-23 -24 7 -4 8 -3 4 4 -8 14 3 15 22 3 10 -6 6 -11 -17 -19 -31 -11 -31 -11
-32 26 0 20 -3 31 -6 25 -6 -17 -60 -17 -66 0 -7 18 8 41 21 33 6 -3 13 2 15
11 4 15 5 16 6 2 1 -18 31 -35 31 -19 0 6 16 8 35 6 28 -4 35 -1 36 12 1 10 4
7 9 -8 l8 -25 1 28 c1 22 -3 27 -24 27 -14 0 -25 -4 -25 -10 0 -5 -9 -10 -20
-10 -11 0 -20 5 -20 10 0 6 -11 10 -25 10 -14 0 -25 -4 -25 -10 0 -5 -5 -10
-11 -10 -5 0 -7 5 -4 10 3 6 2 10 -4 10 -5 0 -12 -8 -14 -17 -3 -12 -5 -8 -6
9 -1 22 3 26 19 23 21 -4 27 9 10 20 -5 3 -9 21 -8 40 1 19 -2 38 -5 42 -4 3
-7 -16 -8 -43 0 -27 -3 -42 -6 -34 -3 8 -10 17 -14 20 -8 6 -14 132 -11 253 2
60 4 67 23 67 13 0 18 -4 13 -12 -6 -10 -4 -10 7 -2 8 6 21 14 29 18 8 3 5 4
-8 2 -12 -2 -29 2 -36 10 -11 11 -16 11 -19 1 -3 -7 -6 -5 -6 6 -1 9 4 17 10
17 5 0 7 5 3 11 -4 7 7 10 32 9 59 -3 64 -1 63 18 0 10 -3 12 -6 5 -2 -7 -18
-13 -34 -13 -16 0 -29 5 -29 13 0 9 -2 9 -9 -1 -7 -11 -9 -11 -14 1 -3 7 -1
20 4 28 7 12 9 12 9 -1 0 -12 2 -13 9 -1 5 7 6 23 3 34 -5 20 -6 20 -13 1 -5
-13 -8 -5 -8 27 -1 26 4 51 12 56 17 14 240 14 249 -1 4 -6 8 3 8 19 0 20 -3
26 -9 17 -8 -13 -36 -15 -178 -13 -60 1 -63 2 -63 26 0 14 6 25 13 25 9 0 9 2
-1 9 -10 6 -12 26 -8 77 2 38 5 76 5 83 1 12 4 12 13 3 15 -15 32 -16 23 -2
-3 6 -2 10 4 10 5 0 12 -6 14 -12 3 -7 5 1 5 17 0 17 -2 24 -5 18 -8 -20 -55
-16 -51 3 5 27 37 42 48 24 6 -9 10 -10 10 -3 0 12 61 10 81 -3 5 -3 9 -1 9 3
0 5 18 9 40 9 38 0 39 0 43 -40 3 -37 4 -36 5 12 2 47 4 52 25 51 21 0 21 -1
2 -9 -23 -10 -20 -12 18 -14 15 -1 27 2 27 6 0 4 -6 8 -12 8 -9 0 -8 4 2 10
10 7 -10 9 -65 9 -58 -1 -72 -3 -50 -9 41 -10 9 -14 -92 -11 -29 1 -34 4 -23
11 11 7 5 10 -22 10 -21 0 -38 5 -38 10 0 6 4 10 8 10 5 0 6 14 4 31 -3 20 -1
30 6 26 6 -4 10 6 9 26 -1 81 4 128 13 122 13 -8 13 8 0 21 -5 5 -10 26 -12
47 -1 21 -6 41 -11 44 -5 3 -3 9 4 14 11 7 10 9 -3 9 -9 0 -20 5 -24 12 -4 6
-3 8 4 4 6 -3 13 -2 17 4 3 5 -3 10 -13 10 -11 0 -25 7 -32 15 -16 19 -79 19
-104 0 -11 -8 -32 -15 -48 -15 -15 0 -28 -4 -28 -10 0 -5 7 -7 16 -3 12 4 15
2 12 -8 -3 -8 -10 -13 -16 -12 -5 1 -9 -9 -9 -24 0 -14 -5 -28 -10 -32 -5 -3
-10 -30 -11 -60 -1 -30 -6 -57 -10 -60 -4 -3 -7 -16 -6 -29 1 -12 -2 -25 -6
-27 -4 -2 -6 -16 -5 -30 2 -14 -1 -27 -5 -30 -5 -3 -7 -12 -3 -20 3 -8 1 -15
-5 -15 -5 0 -8 -11 -7 -25 2 -14 -1 -25 -6 -25 -5 0 -9 12 -10 28 0 16 -3 21
-6 12 -11 -26 -31 -40 -57 -40 -14 0 -26 6 -26 13 0 9 -3 8 -9 -2 -7 -11 -9
-11 -14 0 -3 8 -6 1 -6 -16 0 -21 2 -26 8 -16 7 11 9 11 14 0 3 -9 6 -10 6 -2
1 7 11 10 29 6 15 -3 37 -6 50 -6 15 -1 22 -7 22 -21 0 -17 -2 -18 -10 -6 -9
13 -10 13 -10 0 0 -13 -1 -13 -10 0 -8 12 -10 12 -10 1 0 -11 -3 -11 -17 0
-11 10 -14 10 -9 2 4 -7 2 -13 -3 -13 -6 0 -11 -4 -11 -8 0 -5 18 -8 40 -7 32
2 38 -1 29 -11 -6 -7 -8 -18 -4 -24 3 -5 2 -10 -4 -10 -5 0 -12 8 -14 18 -3 9
-5 1 -6 -18 0 -26 2 -31 9 -20 7 11 10 4 10 -25 0 -27 -3 -36 -9 -26 -6 10 -9
-2 -9 -35 1 -73 0 -74 -27 -74 -14 0 -25 -5 -25 -11 0 -7 10 -9 26 -5 22 6 25
4 22 -16 -3 -26 -46 -38 -59 -16 -7 10 -9 10 -9 -2 0 -13 -1 -13 -10 0 -8 12
-10 11 -10 -7 0 -18 4 -21 27 -17 14 3 33 2 42 -1 13 -5 14 -7 1 -16 -13 -8
-13 -10 0 -19 13 -8 12 -10 -2 -10 -26 0 -33 4 -32 18 3 19 -14 14 -19 -5 -4
-17 -5 -17 -6 0 -1 11 -9 17 -23 16 -17 -1 -19 -2 -5 -6 20 -5 22 -14 5 -32
-10 -11 -10 -12 -1 -7 9 5 12 -1 11 -18 -2 -20 -8 -26 -28 -27 l-25 -1 24 -7
c13 -3 28 -15 33 -26 8 -18 8 -18 4 3 -3 14 1 22 10 22 8 0 11 -7 8 -17 -5
-17 -5 -17 6 0 6 9 17 17 25 17 11 0 14 -11 11 -49 -2 -28 -7 -54 -10 -60 -4
-5 -1 -13 5 -17 8 -4 7 -9 -2 -15 -10 -6 -11 -9 -1 -9 6 0 12 -4 12 -10 0 -5
-7 -10 -16 -10 -8 0 -12 -5 -9 -10 4 -6 11 -8 16 -5 5 4 9 -1 9 -10 0 -13 -6
-16 -25 -11 -22 6 -25 3 -24 -21 1 -22 3 -23 6 -7 6 30 55 21 51 -10 -2 -17
-9 -20 -30 -18 -16 2 -28 0 -28 -5 0 -5 16 -8 35 -8 34 2 35 1 33 -37 -1 -21
-6 -38 -12 -38 -6 0 -4 -5 4 -10 12 -7 16 -3 21 23 l6 32 2 -33 c0 -18 5 -31
10 -28 9 6 21 -16 21 -37 0 -7 -5 -4 -11 7 -9 15 -13 16 -20 5 -6 -10 -9 -11
-9 -2 0 9 -7 7 -20 -4 -20 -17 -28 -39 -11 -28 5 3 12 1 16 -5 3 -5 -3 -10
-14 -10 -17 0 -21 -6 -20 -27 2 -24 2 -25 6 -5 3 12 12 22 21 22 11 0 13 -3 6
-8 -9 -5 -8 -11 2 -20 12 -11 14 -6 15 30 0 24 3 38 5 32 3 -7 14 -10 24 -7
18 5 19 2 14 -28 -4 -19 -3 -31 1 -27 16 15 37 -34 37 -83 -1 -33 3 -49 12
-49 8 0 11 -10 8 -30 -3 -25 -1 -29 12 -24 9 3 16 1 16 -5 0 -6 -7 -11 -15
-11 -8 0 -15 -6 -15 -12 0 -9 -4 -8 -10 2 -7 11 -10 0 -10 -37 0 -43 3 -51 18
-48 9 2 24 4 32 5 13 1 13 2 0 7 -43 17 -53 54 -12 47 40 -8 49 -21 51 -79 1
-17 3 -17 11 -5 8 13 10 12 10 -2 0 -14 -9 -18 -40 -18 -25 0 -40 5 -41 13 0
6 -4 3 -9 -8 -8 -19 -9 -19 -9 -1 -1 11 -4 16 -8 13 -3 -4 -12 -2 -19 4 -8 6
-21 8 -30 5 -12 -4 -15 -2 -11 9 4 8 2 17 -3 20 -6 4 -10 -9 -11 -27 0 -18 -3
-27 -6 -20 -2 6 -9 12 -14 12 -6 0 -7 -4 -4 -10 6 -10 -7 -14 -32 -11 -7 1
-13 -3 -13 -8 0 -5 11 -8 25 -5 16 3 25 0 25 -8 0 -9 3 -8 10 2 7 11 10 8 9
-15 0 -16 -3 -24 -6 -17 -2 6 -14 11 -26 11 -17 -1 -18 -2 -4 -6 9 -2 17 -8
17 -13 0 -10 -38 -1 -46 11 -3 5 -20 9 -37 8 -20 0 -26 -3 -17 -7 13 -6 16
-22 11 -57 -2 -16 -38 -16 -51 0 -16 19 -5 34 20 28 12 -3 20 0 20 7 0 8 -9
11 -24 8 -20 -4 -23 -1 -24 25 -1 26 2 28 24 23 14 -4 24 -2 24 4 0 5 -12 10
-26 10 -14 0 -23 4 -19 10 3 6 2 10 -4 10 -5 0 -12 -6 -14 -12 -3 -7 -6 2 -6
19 -1 32 -1 33 -51 32 -27 -1 -50 -5 -50 -10 0 -4 20 -6 44 -3 l43 4 1 -45 c1
-29 -3 -45 -11 -45 -7 0 -6 -4 3 -10 18 -11 7 -13 -77 -10 -29 1 -53 -3 -53
-8 0 -5 15 -9 34 -8 28 2 33 0 28 -16 -5 -22 -22 -34 -22 -16 0 9 -3 9 -10 -2
-9 -13 -11 -13 -20 0 -9 13 -10 13 -10 0 0 -13 -1 -13 -10 0 -7 11 -10 12 -10
2 0 -7 7 -20 15 -28 8 -9 15 -11 15 -5 0 6 9 11 20 11 15 0 19 -6 18 -25 -2
-17 -8 -25 -20 -25 -10 0 -18 6 -18 13 0 9 -3 8 -9 -2 -7 -11 -9 -11 -14 0 -4
11 -6 11 -6 1 -1 -7 6 -20 14 -28 8 -9 15 -11 15 -5 0 5 9 9 20 8 14 -1 20 -8
20 -25 0 -22 -2 -23 -17 -11 -13 11 -15 11 -9 1 6 -9 3 -12 -10 -10 -11 2 -22
12 -26 23 -3 11 -6 -21 -7 -71 -1 -87 0 -91 20 -90 29 1 35 -20 10 -34 -17 -9
-21 -8 -21 5 0 15 -2 15 -15 1 -8 -8 -15 -21 -15 -28 0 -10 3 -9 10 2 5 8 10
10 10 3 0 -6 9 -9 20 -6 15 4 20 0 20 -16 0 -11 -3 -20 -7 -20 -21 3 -33 -3
-33 -17 0 -8 5 -12 10 -9 5 3 10 2 10 -4 0 -19 -42 -24 -59 -6 -15 16 -15 17
7 12 18 -4 22 -1 22 16 0 18 -2 19 -10 7 -6 -9 -10 -11 -10 -3 0 7 -7 10 -15
7 -8 -4 -15 -2 -16 2 -8 79 -7 94 12 94 11 0 19 7 19 18 0 13 -2 14 -9 3 -6
-10 -10 -10 -16 -1 -10 16 -15 100 -6 100 4 0 6 13 5 30 -2 26 2 30 22 30 16
0 24 5 23 18 0 10 -3 12 -6 5 -9 -24 -39 -14 -41 12 -1 19 3 25 17 25 11 0 22
-6 24 -12 3 -7 6 1 6 17 0 17 -3 26 -7 20 -14 -20 -42 -14 -42 9 0 18 6 22 28
22 15 -1 30 -5 34 -11 4 -6 8 -2 8 8 0 12 -8 17 -30 17 -23 0 -30 5 -30 19 0
11 4 22 9 25 14 9 39 -4 44 -22 3 -12 5 -9 6 6 0 13 6 20 11 17 6 -3 10 -1 10
4 0 6 -9 11 -19 11 -11 0 -22 6 -24 13 -4 9 -6 9 -6 0 -1 -7 -8 -13 -16 -13
-12 0 -15 9 -13 35 2 31 5 35 30 35 15 0 28 4 28 8 0 5 -13 7 -30 4 -18 -3
-30 0 -30 7 0 6 9 11 20 11 13 0 20 7 20 20 0 15 -7 20 -25 20 -16 0 -25 6
-25 16 0 10 6 14 15 10 8 -3 15 -1 15 4 0 6 -7 10 -16 10 -8 0 -12 5 -9 10 3
6 1 10 -4 10 -6 0 -11 -6 -11 -12 0 -9 -4 -8 -10 2 -6 10 -10 11 -10 3 0 -8
-13 -13 -30 -13 -17 0 -30 5 -31 13 0 6 -4 3 -9 -8 l-9 -20 0 20 c-1 15 -3 17
-10 6 -7 -11 -9 -11 -14 0 -4 10 -6 8 -6 -4 -1 -10 -5 -15 -11 -12 -5 3 -10 0
-10 -7 0 -9 -3 -9 -10 2 -7 11 -5 17 8 22 14 5 13 7 -5 7 -18 1 -23 -5 -23
-23 0 -21 4 -24 27 -20 15 3 30 7 35 10 4 3 8 0 8 -6 0 -6 5 -8 11 -5 6 4 5
-2 -3 -14 -7 -12 -16 -21 -21 -21 -4 0 -5 6 -1 13 5 8 2 8 -9 -2 -11 -9 -17
-10 -17 -2 0 15 -27 14 -33 -1 -3 -7 -6 10 -6 39 l-1 51 35 -3 c31 -3 35 0 35
21 0 15 -6 24 -15 24 -8 0 -15 5 -15 11 0 6 7 9 15 5 8 -3 16 0 17 7 0 7 4 -8
8 -33 l7 -45 1 38 c1 23 6 36 12 32 6 -3 10 0 10 7 0 8 3 9 8 3 8 -12 22 -13
40 -2 6 5 12 4 12 -2 0 -11 46 -5 69 10 12 8 10 9 -11 6 -19 -3 -28 0 -28 9 0
17 -27 18 -33 2 -4 -10 -6 -10 -6 0 -1 6 -11 11 -23 11 -17 -1 -19 -2 -5 -6 9
-2 17 -8 17 -13 0 -4 -9 -6 -20 -3 -11 3 -20 10 -20 17 0 8 -2 8 -8 0 -5 -9
-10 -9 -18 0 -8 9 -7 15 3 24 10 10 13 10 13 0 0 -9 3 -9 10 2 9 13 11 13 20
0 8 -13 10 -12 10 3 0 9 -8 17 -17 18 -15 0 -15 2 2 9 18 8 18 9 2 9 -15 1
-16 3 -5 15 7 8 18 11 23 8 18 -11 35 -10 35 1 0 8 3 8 8 2 9 -12 32 -18 33
-7 0 4 2 15 4 25 3 15 1 16 -11 6 -12 -9 -14 -6 -14 20 0 19 6 34 15 37 8 4
12 10 9 15 -3 5 2 12 10 15 9 3 16 13 16 21 0 8 5 11 11 8 6 -4 9 0 7 11 -2
12 2 18 10 16 7 -1 12 5 10 15 -2 10 2 18 9 18 6 0 15 4 20 8 4 5 1 7 -7 5
-10 -2 -14 3 -12 17 2 11 7 22 12 25 4 3 10 23 14 45 3 22 8 49 10 60 2 11 5
27 5 35 1 10 12 17 33 18 45 4 49 12 5 12 -30 0 -37 4 -37 20 0 11 5 20 10 20
6 0 10 5 10 11 0 5 -4 7 -10 4 -6 -4 -10 6 -10 22 l0 29 76 0 c42 -1 78 2 81
7 2 4 -7 7 -21 7 -13 0 -27 6 -29 13 -4 10 -6 10 -6 0 -1 -9 -18 -13 -51 -13
-48 0 -50 1 -50 28 0 21 2 24 10 12 5 -8 10 -10 10 -4 0 7 23 10 60 9 33 0 60
3 60 7 0 4 -6 8 -14 8 -8 0 -17 6 -19 13 -4 10 -6 10 -6 0 -1 -9 -18 -13 -51
-13 -46 0 -50 2 -50 24 0 20 4 24 21 21 12 -3 29 0 38 5 12 7 7 9 -20 10 -37
0 -57 20 -43 42 4 6 2 13 -4 17 -7 4 -13 33 -14 64 -1 31 -7 57 -13 57 -5 0
-3 5 5 10 10 6 11 10 3 10 -7 0 -13 5 -13 11 0 5 5 7 10 4 6 -3 10 0 10 7 0 9
3 9 10 -2 6 -10 10 -11 10 -2 0 6 5 12 11 12 5 0 7 -5 3 -11 -5 -8 -2 -9 11
-2 25 14 55 4 55 -18 0 -21 -16 -26 -23 -6 -3 6 -6 3 -7 -8 l-1 -20 -9 20 c-5
11 -9 14 -9 8 -1 -7 -10 -13 -21 -13 -13 0 -20 -6 -19 -17 0 -10 2 -13 5 -8 2
6 23 9 46 9 40 -1 43 0 49 30 l6 31 2 -32 c1 -26 4 -30 21 -26 12 3 20 0 20
-6 0 -7 5 -9 10 -6 18 11 10 25 -15 25 -18 0 -25 5 -25 20 0 15 7 20 25 20 14
0 25 5 25 10 0 6 -9 10 -21 10 -11 0 -27 6 -35 14 -16 17 -19 30 -4 21 6 -3
10 -1 10 4 0 6 -7 11 -15 11 -9 0 -15 -9 -15 -24 0 -31 -23 -39 -44 -15 -18
21 -21 33 -7 24 5 -3 12 -1 16 5 4 6 -14 10 -49 10 -61 0 -64 3 -68 51 -1 19
-5 36 -9 39 -4 3 -10 17 -12 30 -2 14 -7 32 -11 41 -4 9 -8 28 -10 43 -1 14
-6 29 -9 33 -10 9 -9 25 1 19 4 -2 14 -1 22 5 11 6 8 9 -14 9 -21 0 -27 4 -22
15 3 8 1 15 -5 15 -6 0 -7 5 -4 10 4 6 10 8 15 5 5 -3 11 -1 15 5 4 6 -5 10
-19 10 -22 0 -26 4 -26 30 0 17 -4 30 -10 30 -5 0 -10 7 -10 16 0 8 -3 13 -7
11 -5 -3 -15 2 -22 11 -13 14 -12 15 7 10 12 -4 22 -3 22 2 0 15 -149 25 -183
11z m704 -1913 c8 -15 8 -19 0 -14 -6 4 -11 0 -11 -10 0 -10 3 -14 7 -11 12
13 32 -29 33 -68 0 -29 -3 -36 -10 -25 -7 12 -10 8 -10 -15 0 -23 3 -27 10
-15 8 12 10 9 10 -12 0 -16 -4 -28 -10 -28 -5 0 -10 -8 -10 -17 0 -14 2 -15 9
-4 6 9 10 10 12 2 3 -8 10 -7 24 3 18 14 18 15 3 16 -12 0 -18 8 -18 25 0 51
22 24 51 -61 6 -19 3 -22 -17 -19 -13 1 -24 -2 -24 -6 0 -5 7 -10 15 -10 8 -1
19 -2 24 -3 18 -2 23 -15 12 -33 -7 -13 -10 -14 -11 -3 0 11 -3 11 -12 2 -10
-10 -10 -15 2 -22 12 -8 11 -10 -7 -10 -15 0 -21 5 -17 13 3 8 -3 20 -12 28
-10 8 -15 9 -11 2 4 -6 3 -14 -3 -18 -10 -6 -15 13 -11 53 1 15 -2 21 -8 17
-6 -3 -12 0 -12 7 -3 27 -4 34 -17 56 -8 13 -11 26 -8 29 3 3 -2 12 -10 20 -9
10 -13 27 -10 45 3 23 1 28 -10 24 -9 -4 -14 2 -14 17 0 18 2 19 10 7 6 -10
10 -11 10 -2 0 6 7 12 16 12 8 0 13 4 10 9 -3 5 -19 7 -35 6 -26 -2 -28 0 -18
16 6 10 15 15 19 13 4 -3 8 -1 8 4 0 17 40 1 51 -20z m-237 -100 c-6 -10 -4
-10 7 0 19 17 46 15 59 -5 11 -17 11 -17 6 0 -3 10 0 17 8 17 9 0 12 -14 10
-47 -5 -90 -5 -91 -14 -63 -4 14 -8 19 -9 13 -1 -7 -7 -13 -15 -13 -8 0 -17
-4 -20 -9 -3 -5 2 -8 12 -7 11 1 18 -7 20 -23 3 -16 0 -21 -9 -16 -8 5 -10 4
-5 -3 11 -18 26 -14 26 7 0 10 7 21 15 25 11 4 15 -1 15 -17 0 -18 -2 -19 -10
-7 -8 13 -10 13 -10 -2 0 -9 5 -20 10 -23 6 -3 10 -13 10 -21 0 -8 -4 -12 -10
-9 -5 3 -10 -3 -10 -15 0 -12 4 -19 9 -16 10 7 21 -27 21 -68 0 -21 -4 -27
-15 -22 -8 3 -15 0 -16 -7 0 -8 -2 -8 -5 -1 -3 6 -15 9 -28 7 -29 -6 -32 -1
-41 59 l-7 47 28 -5 c15 -3 31 -7 36 -10 4 -3 8 7 8 23 0 15 -4 23 -8 18 -14
-19 -60 -17 -71 3 -9 16 -7 19 11 18 12 0 23 5 25 12 3 7 -1 10 -11 6 -9 -3
-16 -1 -16 6 0 6 -4 8 -10 5 -11 -7 -15 27 -11 89 2 25 -1 36 -8 31 -7 -3 -11
2 -11 14 0 15 6 21 21 21 13 0 18 -4 13 -12z"/>
<path d="M1020 1093 c0 -25 10 -29 28 -11 9 9 12 9 12 -1 0 -11 3 -11 17 0 14
12 16 12 8 0 -6 -11 -4 -13 8 -8 13 5 17 1 16 -16 0 -12 -3 -16 -6 -9 -2 6
-17 12 -31 11 -23 -1 -24 -2 -7 -7 13 -5 21 -17 23 -38 3 -28 0 -32 -28 -36
-20 -3 -30 0 -30 9 0 8 -12 13 -32 12 -18 -1 -25 -3 -15 -6 9 -2 17 -13 17
-23 0 -15 7 -18 34 -17 19 1 32 6 29 10 -3 5 4 4 15 -2 19 -10 21 -8 25 26 l4
38 1 -36 c2 -34 3 -35 37 -33 19 2 35 -1 35 -6 0 -6 -7 -10 -15 -10 -8 0 -15
-6 -15 -13 0 -9 -15 -13 -49 -12 -34 1 -47 -3 -44 -11 5 -14 35 -13 45 1 5 6
8 6 8 -1 0 -6 10 -10 23 -8 12 1 25 3 29 3 4 1 5 8 2 16 -4 8 -1 15 6 15 6 0
9 -4 6 -8 -2 -4 -1 -14 5 -22 6 -11 9 -7 9 16 0 34 15 46 50 39 13 -2 20 1 20
11 0 8 -6 14 -12 13 -31 -4 -40 4 -13 11 28 7 27 8 -12 9 -24 0 -43 -3 -43 -8
0 -11 -35 -20 -48 -12 -11 7 -11 96 1 107 9 9 -12 34 -29 34 -8 0 -14 -4 -14
-10 0 -5 -8 -10 -18 -10 -10 0 -23 -5 -30 -12 -7 -7 -12 -9 -12 -6 0 4 7 13
15 22 14 13 13 15 -5 13 -14 -1 -20 -8 -20 -24z"/>
<path d="M941 864 c-18 -21 1 -43 23 -25 21 18 36 5 36 -30 0 -28 2 -29 43
-29 38 1 40 2 23 15 -18 13 -18 14 3 12 11 -1 21 -7 21 -14 0 -17 23 -12 32 7
6 13 7 13 7 -1 1 -13 14 -16 66 -17 67 -1 77 5 48 29 -11 10 -14 10 -9 2 4 -8
1 -13 -9 -13 -11 0 -15 7 -13 23 2 16 9 22 26 21 12 -1 22 3 22 7 0 5 -11 7
-24 5 -17 -3 -26 1 -29 12 -3 9 -6 -5 -7 -33 -1 -27 -4 -42 -7 -32 -3 12 -15
17 -39 17 -25 0 -34 4 -34 16 0 14 3 14 15 4 10 -9 15 -9 15 -1 0 13 22 10 32
-4 4 -5 8 4 8 20 -1 24 -2 27 -10 13 -11 -19 -49 -16 -62 4 -5 9 -8 7 -9 -7
l0 -20 -9 20 c-5 11 -9 14 -9 8 -1 -15 -31 -18 -31 -3 0 6 -9 10 -20 10 -14 0
-20 -7 -20 -24 0 -19 5 -23 24 -21 14 2 30 6 35 10 6 3 11 -1 11 -9 0 -11 -10
-16 -34 -16 -19 0 -37 -6 -39 -12 -3 -7 -6 6 -6 30 -1 33 -5 42 -18 41 -11 0
-13 -3 -5 -6 20 -8 14 -22 -8 -16 -11 3 -17 9 -14 14 9 15 -10 9 -25 -7z"/>
</g>
</svg>
